<svg width="120" height="120" viewBox="0 0 120 120" fill="none" xmlns="http://www.w3.org/2000/svg">
  <defs>
    <linearGradient id="g" x1="18" y1="16" x2="102" y2="108" gradientUnits="userSpaceOnUse">
      <stop stop-color="#FFB84D"/>
      <stop offset="0.55" stop-color="#8C52FF"/>
      <stop offset="1" stop-color="#2DE2E6"/>
    </linearGradient>
    <filter id="s" x="-20%" y="-20%" width="140%" height="140%" color-interpolation-filters="sRGB">
      <feDropShadow dx="0" dy="10" stdDeviation="10" flood-color="#000" flood-opacity="0.35"/>
    </filter>
  </defs>

  <!-- soft plate -->
  <circle cx="60" cy="60" r="48" fill="rgba(255,255,255,0.06)" stroke="rgba(255,255,255,0.14)"/>

  <!-- monogram mark -->
  <g filter="url(#s)">
    <path d="M33 72C33 51 47 36 66 36C77 36 86 41 92 50" stroke="url(#g)" stroke-width="10" stroke-linecap="round"/>
    <path d="M87 48C83 64 69 78 52 82" stroke="url(#g)" stroke-width="10" stroke-linecap="round"/>
    <circle cx="92" cy="50" r="6" fill="#FFB84D"/>
  </g>

  <!-- small steam lines -->
  <path d="M46 28C44 24 44 21 47 17" stroke="rgba(255,255,255,0.45)" stroke-width="2" stroke-linecap="round"/>
  <path d="M60 26C58 22 58 19 61 15" stroke="rgba(255,255,255,0.35)" stroke-width="2" stroke-linecap="round"/>
  <path d="M74 28C72 24 72 21 75 17" stroke="rgba(255,255,255,0.45)" stroke-width="2" stroke-linecap="round"/>
</svg>
